<?xml version="1.0" encoding="UTF-8"?>
<svg version="1.1" xmlns="http://www.w3.org/2000/svg" width="740" height="740">
<path d="M0 0 C244.2 0 488.4 0 740 0 C740 244.2 740 488.4 740 740 C495.8 740 251.6 740 0 740 C0 495.8 0 251.6 0 0 Z " fill="#F6F5F6" transform="translate(0,0)"/>
<path d="M0 0 C0 0.66 0 1.32 0 2 C2.64 2 5.28 2 8 2 C8 2.66 8 3.32 8 4 C8.88171875 4.10441406 9.7634375 4.20882813 10.671875 4.31640625 C21.30196833 6.49981744 30.77569032 16.02892936 36.8515625 24.6171875 C38.34430996 27.03646786 39.70856499 29.46827591 41 32 C41.50853516 32.99386719 41.50853516 32.99386719 42.02734375 34.0078125 C43.67042206 37.50597923 44.11670651 40.1811035 44 44 C44.73863281 43.96519531 45.47726562 43.93039062 46.23828125 43.89453125 C58.42460255 43.56935622 70.23189625 46.24760013 79.70703125 54.30078125 C84.38600348 58.81533864 88.19020568 63.12497552 91 69 C92.485 68.505 92.485 68.505 94 68 C103.4154899 67.04435127 111.30698726 68.90682644 118.875 74.6875 C122.52635743 78.10579206 124.75484818 82.16633609 126 87 C126 89.31 126 91.62 126 94 C109.17 94 92.34 94 75 94 C74.67 92.35 74.34 90.7 74 89 C72.81104764 87.05967596 72.81104764 87.05967596 71 86 C67.24308616 86.39265093 65.47190064 88.16285979 62.87402344 90.78540039 C61.67323151 91.98653221 61.67323151 91.98653221 60.44818115 93.21192932 C59.59387512 94.08171921 58.73956909 94.95150909 57.859375 95.84765625 C56.97719299 96.7340831 56.09501099 97.62050995 55.18609619 98.53379822 C52.84621423 100.88763056 50.51304602 103.24773754 48.18286133 105.61114502 C45.80185337 108.02288417 43.41229147 110.42611479 41.0234375 112.83007812 C36.3410322 117.54558059 31.66729272 122.26954156 27 127 C23.25979502 125.31847927 21.43865652 123.30960527 19 120 C19.72179443 119.28344238 20.44358887 118.56688477 21.18725586 117.82861328 C23.86035404 115.17359277 26.53015971 112.51528247 29.19897461 109.85595703 C30.35530245 108.70466305 31.51252554 107.55426751 32.6706543 106.40478516 C34.33357211 104.75397424 35.9932611 103.09997663 37.65234375 101.4453125 C38.17215317 100.93066437 38.69196259 100.41601624 39.2275238 99.88577271 C41.95541689 97.20150686 41.95541689 97.20150686 44 94 C34.76 94 25.52 94 16 94 C17.65 92.35 19.3 90.7 21 89 C22.34294481 87.34106818 23.67744688 85.67523395 25 84 C26.625 82.1875 26.625 82.1875 28 81 C28.66 81 29.32 81 30 81 C30.33 80.01 30.66 79.02 31 78 C32.8125 76.24609375 32.8125 76.24609375 35 74.4375 C37.94959179 72.07789673 37.94959179 72.07789673 40 69 C39.4225 68.731875 38.845 68.46375 38.25 68.1875 C35.96587952 66.98199197 34.04568469 65.56864477 32 64 C31.57848663 64.42595459 31.15697327 64.85190918 30.72268677 65.29077148 C26.34895884 69.70862193 21.968305 74.1195152 17.58349609 78.52636719 C15.94627709 80.17366638 14.31085455 81.82275301 12.67724609 83.47363281 C10.33376447 85.84127404 7.9839743 88.20248847 5.6328125 90.5625 C4.53273361 91.67806274 4.53273361 91.67806274 3.41043091 92.81616211 C2.7298764 93.49686768 2.0493219 94.17757324 1.34814453 94.87890625 C0.74857941 95.4829126 0.14901428 96.08691895 -0.46871948 96.70922852 C-2 98 -2 98 -4 98 C-4.26473114 98.59004822 -4.52946228 99.18009644 -4.80221558 99.7880249 C-6.04109545 102.07589188 -7.32326738 103.56481646 -9.16455078 105.39160156 C-10.12532028 106.35214447 -10.12532028 106.35214447 -11.10549927 107.33209229 C-11.79513763 108.01140808 -12.484776 108.69072388 -13.1953125 109.390625 C-14.25647781 110.44754547 -14.25647781 110.44754547 -15.33908081 111.52581787 C-17.59639862 113.7719539 -19.86057633 116.01103009 -22.125 118.25 C-23.65800953 119.77297717 -25.19056715 121.29640939 -26.72265625 122.8203125 C-30.47654573 126.55216815 -34.23608914 130.27825351 -38 134 C-41.32759923 132.44805246 -43.48580485 130.69378051 -46 128 C-44.70280076 125.14220983 -43.3363174 123.08991464 -41.11083984 120.88378906 C-40.5303891 120.30348938 -39.94993835 119.7231897 -39.35189819 119.12530518 C-38.72788116 118.51161072 -38.10386414 117.89791626 -37.4609375 117.265625 C-36.49965439 116.30858673 -36.49965439 116.30858673 -35.51895142 115.33221436 C-33.47562179 113.30005931 -31.42544018 111.27497782 -29.375 109.25 C-27.9865214 107.8715547 -26.5984951 106.49265364 -25.2109375 105.11328125 C-21.81333061 101.73599498 -18.40654532 98.36836486 -15 95 C-23.91 94.67 -32.82 94.34 -42 94 C-41.505 92.515 -41.505 92.515 -41 91 C-42.65 89.35 -44.3 87.7 -46 86 C-48.56490126 87.0992434 -50.12843192 88.12843192 -52.125 90.125 C-52.74375 90.74375 -53.3625 91.3625 -54 92 C-54.66 92 -55.32 92 -56 92 C-56 92.66 -56 93.32 -56 94 C-57.36328125 95.33984375 -57.36328125 95.33984375 -59.3125 96.9375 C-64.86146342 101.63967367 -69.90375433 106.81944144 -75 112 C-79.20490286 110.34807388 -79.80982935 108.98771331 -83 105 C-79.7 101.7 -76.4 98.4 -73 95 C-104.68 94.67 -136.36 94.34 -169 94 C-166.91574402 91.91574402 -165.71653911 91.37123131 -163 90.37890625 C-162.19925049 90.08443604 -161.39850098 89.78996582 -160.57348633 89.48657227 C-159.2996106 89.02915649 -159.2996106 89.02915649 -158 88.5625 C-157.14237061 88.25046631 -156.28474121 87.93843262 -155.40112305 87.61694336 C-149.65206498 85.54336079 -143.88899128 83.64119429 -138 82 C-137.85691406 81.26007813 -137.71382812 80.52015625 -137.56640625 79.7578125 C-135.25846597 68.52053087 -129.59730999 58.62671404 -120 52 C-119.34 52 -118.68 52 -118 52 C-118 51.34 -118 50.68 -118 50 C-116.68 50 -115.36 50 -114 50 C-114 49.34 -114 48.68 -114 48 C-112.68 48 -111.36 48 -110 48 C-110 47.34 -110 46.68 -110 46 C-97.11363534 41.87636331 -84.24888532 43.46547706 -72.1875 49.37890625 C-70.08444619 50.53229982 -68.02853484 51.72102713 -66 53 C-66.12375 51.824375 -66.2475 50.64875 -66.375 49.4375 C-66.375 39.61668354 -60.52479326 27.25195396 -54 20 C-53.34 20 -52.68 20 -52 20 C-51.7628125 19.42121094 -51.525625 18.84242188 -51.28125 18.24609375 C-46.16605825 9.27891308 -33.98872505 4.01059175 -24.5 1.1875 C-16.44659828 -0.68881611 -8.21127087 -0.24633813 0 0 Z " fill="#249CD8" transform="translate(392,280)"/>
<path d="M0 0 C1.38148389 0.0201392 2.76299685 0.03837659 4.14453125 0.0546875 C7.47212635 0.10122729 10.79816037 0.1665884 14.125 0.25 C14.125 0.91 14.125 1.57 14.125 2.25 C15.424375 2.188125 15.424375 2.188125 16.75 2.125 C20.24858468 2.25457721 22.87051597 3.01019656 26.125 4.25 C26.125 4.91 26.125 5.57 26.125 6.25 C27.445 6.25 28.765 6.25 30.125 6.25 C30.125 6.91 30.125 7.57 30.125 8.25 C31.445 8.25 32.765 8.25 34.125 8.25 C34.125 8.91 34.125 9.57 34.125 10.25 C34.785 10.25 35.445 10.25 36.125 10.25 C36.125 10.91 36.125 11.57 36.125 12.25 C37.445 12.25 38.765 12.25 40.125 12.25 C40.125 12.91 40.125 13.57 40.125 14.25 C40.785 14.25 41.445 14.25 42.125 14.25 C42.125 14.91 42.125 15.57 42.125 16.25 C42.785 16.25 43.445 16.25 44.125 16.25 C44.125 16.91 44.125 17.57 44.125 18.25 C44.785 18.25 45.445 18.25 46.125 18.25 C46.125 18.91 46.125 19.57 46.125 20.25 C46.785 20.25 47.445 20.25 48.125 20.25 C48.125 20.91 48.125 21.57 48.125 22.25 C48.785 22.25 49.445 22.25 50.125 22.25 C50.125 22.91 50.125 23.57 50.125 24.25 C50.785 24.25 51.445 24.25 52.125 24.25 C52.125 24.91 52.125 25.57 52.125 26.25 C52.785 26.25 53.445 26.25 54.125 26.25 C55.115 29.22 55.115 29.22 56.125 32.25 C56.785 32.25 57.445 32.25 58.125 32.25 C58.125 33.57 58.125 34.89 58.125 36.25 C58.785 36.25 59.445 36.25 60.125 36.25 C64.87638092 45.07399313 68.90824302 54.06784072 68.125 64.25 C67.465 64.25 66.805 64.25 66.125 64.25 C66.125 63.59 66.125 62.93 66.125 62.25 C63.485 62.25 60.845 62.25 58.125 62.25 C58.125 61.59 58.125 60.93 58.125 60.25 C38.88119905 60.87007803 21.08394659 63.38921136 7.125 78.25 C6.795 78.91 6.465 79.57 6.125 80.25 C5.465 80.25 4.805 80.25 4.125 80.25 C3.84398437 80.81460938 3.56296875 81.37921875 3.2734375 81.9609375 C2.51615127 83.47035836 1.75068747 84.97570798 0.9765625 86.4765625 C-3.55302372 95.33377887 -7.22846793 103.22875296 -7.875 113.25 C-10.2575855 112.32770884 -12.6117244 111.37212785 -14.9296875 110.296875 C-27.08704497 104.65989956 -38.67275443 104.13764071 -51.875 106.25 C-51.875 106.91 -51.875 107.57 -51.875 108.25 C-53.195 108.25 -54.515 108.25 -55.875 108.25 C-55.875 108.91 -55.875 109.57 -55.875 110.25 C-57.525 110.25 -59.175 110.25 -60.875 110.25 C-61.205 108.93 -61.535 107.61 -61.875 106.25 C-62.535 106.25 -63.195 106.25 -63.875 106.25 C-63.875 104.93 -63.875 103.61 -63.875 102.25 C-64.535 102.25 -65.195 102.25 -65.875 102.25 C-65.875 100.93 -65.875 99.61 -65.875 98.25 C-66.535 98.25 -67.195 98.25 -67.875 98.25 C-67.875 96.27 -67.875 94.29 -67.875 92.25 C-68.535 92.25 -69.195 92.25 -69.875 92.25 C-72.46416222 85.41616137 -72.24292684 78.97877255 -72.25 71.75 C-72.27449219 70.46351563 -72.29898437 69.17703125 -72.32421875 67.8515625 C-72.35220973 58.57721845 -70.85588647 50.95790404 -67.875 42.25 C-67.215 42.25 -66.555 42.25 -65.875 42.25 C-65.875 40.93 -65.875 39.61 -65.875 38.25 C-65.215 38.25 -64.555 38.25 -63.875 38.25 C-63.771875 37.71375 -63.66875 37.1775 -63.5625 36.625 C-62.69407303 33.62497956 -61.31879704 31.0120465 -59.875 28.25 C-59.215 28.25 -58.555 28.25 -57.875 28.25 C-57.875 27.59 -57.875 26.93 -57.875 26.25 C-57.215 26.25 -56.555 26.25 -55.875 26.25 C-55.6275 25.63125 -55.38 25.0125 -55.125 24.375 C-53.66871361 21.89931313 -52.49687494 21.29874998 -49.875 20.25 C-49.875 19.59 -49.875 18.93 -49.875 18.25 C-49.215 18.25 -48.555 18.25 -47.875 18.25 C-47.875 17.59 -47.875 16.93 -47.875 16.25 C-47.215 16.25 -46.555 16.25 -45.875 16.25 C-45.875 15.59 -45.875 14.93 -45.875 14.25 C-45.215 14.25 -44.555 14.25 -43.875 14.25 C-43.875 13.59 -43.875 12.93 -43.875 12.25 C-41.895 11.59 -39.915 10.93 -37.875 10.25 C-37.875 9.59 -37.875 8.93 -37.875 8.25 C-36.555 8.25 -35.235 8.25 -33.875 8.25 C-33.875 7.59 -33.875 6.93 -33.875 6.25 C-32.555 6.25 -31.235 6.25 -29.875 6.25 C-29.875 5.59 -29.875 4.93 -29.875 4.25 C-19.68404492 0.72518925 -10.84731599 -0.27677156 0 0 Z " fill="#F5F3F3" transform="translate(333.875,219.75)"/>
<path d="M0 0 C1.38148389 0.0201392 2.76299685 0.03837659 4.14453125 0.0546875 C7.47212635 0.10122729 10.79816037 0.1665884 14.125 0.25 C14.125 0.91 14.125 1.57 14.125 2.25 C15.424375 2.188125 15.424375 2.188125 16.75 2.125 C20.24858468 2.25457721 22.87051597 3.01019656 26.125 4.25 C26.125 4.91 26.125 5.57 26.125 6.25 C27.445 6.25 28.765 6.25 30.125 6.25 C30.125 6.91 30.125 7.57 30.125 8.25 C31.445 8.25 32.765 8.25 34.125 8.25 C34.125 8.91 34.125 9.57 34.125 10.25 C34.785 10.25 35.445 10.25 36.125 10.25 C36.125 10.91 36.125 11.57 36.125 12.25 C37.445 12.25 38.765 12.25 40.125 12.25 C40.125 12.91 40.125 13.57 40.125 14.25 C40.785 14.25 41.445 14.25 42.125 14.25 C42.125 14.91 42.125 15.57 42.125 16.25 C42.785 16.25 43.445 16.25 44.125 16.25 C44.125 16.91 44.125 17.57 44.125 18.25 C44.785 18.25 45.445 18.25 46.125 18.25 C46.125 18.91 46.125 19.57 46.125 20.25 C46.785 20.25 47.445 20.25 48.125 20.25 C48.125 20.91 48.125 21.57 48.125 22.25 C48.785 22.25 49.445 22.25 50.125 22.25 C50.125 22.91 50.125 23.57 50.125 24.25 C50.785 24.25 51.445 24.25 52.125 24.25 C52.125 24.91 52.125 25.57 52.125 26.25 C52.785 26.25 53.445 26.25 54.125 26.25 C55.115 29.22 55.115 29.22 56.125 32.25 C56.785 32.25 57.445 32.25 58.125 32.25 C58.125 33.57 58.125 34.89 58.125 36.25 C58.785 36.25 59.445 36.25 60.125 36.25 C64.87638092 45.07399313 68.90824302 54.06784072 68.125 64.25 C67.465 64.25 66.805 64.25 66.125 64.25 C66.125 63.59 66.125 62.93 66.125 62.25 C63.485 62.25 60.845 62.25 58.125 62.25 C58.125 61.59 58.125 60.93 58.125 60.25 C57.135 60.25 56.145 60.25 55.125 60.25 C54.47338988 58.37699975 53.82897805 56.5014945 53.1875 54.625 C52.64802734 53.05878906 52.64802734 53.05878906 52.09765625 51.4609375 C51.16749877 48.39029714 50.57753692 45.422522 50.125 42.25 C49.465 42.25 48.805 42.25 48.125 42.25 C48.125 41.59 48.125 40.93 48.125 40.25 C47.465 40.25 46.805 40.25 46.125 40.25 C46.125 38.93 46.125 37.61 46.125 36.25 C45.465 36.25 44.805 36.25 44.125 36.25 C44.125 35.59 44.125 34.93 44.125 34.25 C43.465 34.25 42.805 34.25 42.125 34.25 C40.50390625 32.5703125 40.50390625 32.5703125 38.6875 30.375 C36.54099116 27.78806278 34.95723438 26.13815626 32.125 24.25 C32.125 23.59 32.125 22.93 32.125 22.25 C30.145 21.59 28.165 20.93 26.125 20.25 C26.125 19.59 26.125 18.93 26.125 18.25 C24.805 18.25 23.485 18.25 22.125 18.25 C22.125 17.59 22.125 16.93 22.125 16.25 C20.949375 16.3428125 20.949375 16.3428125 19.75 16.4375 C16.51722319 16.27028741 14.71462141 15.81666277 11.75 14.75 C1.5884468 11.53625577 -9.35795716 12.55770775 -19.421875 15.59375 C-21.875 16.25 -21.875 16.25 -25.875 16.25 C-25.875 16.91 -25.875 17.57 -25.875 18.25 C-27.195 18.25 -28.515 18.25 -29.875 18.25 C-29.875 18.91 -29.875 19.57 -29.875 20.25 C-31.855 20.91 -33.835 21.57 -35.875 22.25 C-35.875 22.91 -35.875 23.57 -35.875 24.25 C-36.535 24.25 -37.195 24.25 -37.875 24.25 C-37.875 24.91 -37.875 25.57 -37.875 26.25 C-39.5546875 27.87109375 -39.5546875 27.87109375 -41.75 29.6875 C-44.33693722 31.83400884 -45.98684374 33.41776562 -47.875 36.25 C-48.535 36.25 -49.195 36.25 -49.875 36.25 C-49.875 36.91 -49.875 37.57 -49.875 38.25 C-50.535 38.25 -51.195 38.25 -51.875 38.25 C-51.875 39.57 -51.875 40.89 -51.875 42.25 C-52.535 42.25 -53.195 42.25 -53.875 42.25 C-53.875 43.57 -53.875 44.89 -53.875 46.25 C-54.535 46.25 -55.195 46.25 -55.875 46.25 C-56.019375 47.11625 -56.16375 47.9825 -56.3125 48.875 C-56.83333333 52 -57.35416667 55.125 -57.875 58.25 C-58.535 58.25 -59.195 58.25 -59.875 58.25 C-59.52320476 73.27303682 -59.52320476 73.27303682 -56.49609375 87.9375 C-55.875 90.25 -55.875 90.25 -55.875 94.25 C-55.215 94.25 -54.555 94.25 -53.875 94.25 C-53.875 95.57 -53.875 96.89 -53.875 98.25 C-53.215 98.25 -52.555 98.25 -51.875 98.25 C-51.875 99.57 -51.875 100.89 -51.875 102.25 C-51.215 102.25 -50.555 102.25 -49.875 102.25 C-49.875 102.91 -49.875 103.57 -49.875 104.25 C-49.215 104.25 -48.555 104.25 -47.875 104.25 C-47.875 104.91 -47.875 105.57 -47.875 106.25 C-49.195 106.25 -50.515 106.25 -51.875 106.25 C-51.875 106.91 -51.875 107.57 -51.875 108.25 C-53.195 108.25 -54.515 108.25 -55.875 108.25 C-55.875 108.91 -55.875 109.57 -55.875 110.25 C-57.525 110.25 -59.175 110.25 -60.875 110.25 C-61.205 108.93 -61.535 107.61 -61.875 106.25 C-62.535 106.25 -63.195 106.25 -63.875 106.25 C-63.875 104.93 -63.875 103.61 -63.875 102.25 C-64.535 102.25 -65.195 102.25 -65.875 102.25 C-65.875 100.93 -65.875 99.61 -65.875 98.25 C-66.535 98.25 -67.195 98.25 -67.875 98.25 C-67.875 96.27 -67.875 94.29 -67.875 92.25 C-68.535 92.25 -69.195 92.25 -69.875 92.25 C-72.46416222 85.41616137 -72.24292684 78.97877255 -72.25 71.75 C-72.27449219 70.46351563 -72.29898437 69.17703125 -72.32421875 67.8515625 C-72.35220973 58.57721845 -70.85588647 50.95790404 -67.875 42.25 C-67.215 42.25 -66.555 42.25 -65.875 42.25 C-65.875 40.93 -65.875 39.61 -65.875 38.25 C-65.215 38.25 -64.555 38.25 -63.875 38.25 C-63.771875 37.71375 -63.66875 37.1775 -63.5625 36.625 C-62.69407303 33.62497956 -61.31879704 31.0120465 -59.875 28.25 C-59.215 28.25 -58.555 28.25 -57.875 28.25 C-57.875 27.59 -57.875 26.93 -57.875 26.25 C-57.215 26.25 -56.555 26.25 -55.875 26.25 C-55.6275 25.63125 -55.38 25.0125 -55.125 24.375 C-53.66871361 21.89931313 -52.49687494 21.29874998 -49.875 20.25 C-49.875 19.59 -49.875 18.93 -49.875 18.25 C-49.215 18.25 -48.555 18.25 -47.875 18.25 C-47.875 17.59 -47.875 16.93 -47.875 16.25 C-47.215 16.25 -46.555 16.25 -45.875 16.25 C-45.875 15.59 -45.875 14.93 -45.875 14.25 C-45.215 14.25 -44.555 14.25 -43.875 14.25 C-43.875 13.59 -43.875 12.93 -43.875 12.25 C-41.895 11.59 -39.915 10.93 -37.875 10.25 C-37.875 9.59 -37.875 8.93 -37.875 8.25 C-36.555 8.25 -35.235 8.25 -33.875 8.25 C-33.875 7.59 -33.875 6.93 -33.875 6.25 C-32.555 6.25 -31.235 6.25 -29.875 6.25 C-29.875 5.59 -29.875 4.93 -29.875 4.25 C-19.68404492 0.72518925 -10.84731599 -0.27677156 0 0 Z " fill="#FAAC36" transform="translate(333.875,219.75)"/>
<path d="M0 0 C23 0 23 0 31 3 C35.77420067 8.01903148 36.35191723 11.48565449 36.28125 18.234375 C35.88814794 22.0998786 34.61907755 24.16856481 32 27 C27.8 30 27.8 30 25 30 C25.39380859 30.56509277 25.78761719 31.13018555 26.19335938 31.71240234 C27.9670654 34.26328547 29.73360376 36.81905034 31.5 39.375 C32.12003906 40.26445312 32.74007812 41.15390625 33.37890625 42.0703125 C33.96542969 42.92109375 34.55195312 43.771875 35.15625 44.6484375 C35.70087891 45.43395996 36.24550781 46.21948242 36.80664062 47.02880859 C38 49 38 49 38 51 C35.74609375 51.27734375 35.74609375 51.27734375 33 51 C30.97265625 49.12890625 30.97265625 49.12890625 29.0625 46.5625 C28.01642578 45.20511719 28.01642578 45.20511719 26.94921875 43.8203125 C25 41 25 41 23.64453125 38.3671875 C22.27413443 35.74445882 21.24539191 33.94482764 19 32 C14.16713796 30.91639864 10.00872621 30.95274787 5 31 C5 37.6 5 44.2 5 51 C3.35 51 1.7 51 0 51 C0 34.17 0 17.34 0 0 Z " fill="#0C1722" transform="translate(532,468)"/>
<path d="M0 0 C2.32495713 2.12592984 3.70179247 4.07153961 5.03710938 6.91723633 C5.40759399 7.69847366 5.77807861 8.479711 6.15979004 9.28462219 C6.55049683 10.12526718 6.94120361 10.96591217 7.34375 11.83203125 C7.95929749 13.13608162 7.95929749 13.13608162 8.58728027 14.46647644 C9.89759898 17.2456709 11.19899835 20.02893363 12.5 22.8125 C13.80297525 25.58439319 15.10773674 28.35544013 16.41271973 31.12638855 C17.2234862 32.84968515 18.03272421 34.57370193 18.84020996 36.29853821 C19.39593689 37.48457893 19.39593689 37.48457893 19.96289062 38.69458008 C20.48363159 39.80768051 20.48363159 39.80768051 21.01489258 40.94326782 C21.89382007 42.77831487 22.82901594 44.58616708 23.77148438 46.3894043 C25 49 25 49 25 52 C23.02 52 21.04 52 19 52 C18.16235732 50.04350603 17.33000941 48.08474444 16.5 46.125 C16.0359375 45.03445313 15.571875 43.94390625 15.09375 42.8203125 C14 40 14 40 14 38 C5.09 38 -3.82 38 -13 38 C-13.99 40.97 -14.98 43.94 -16 47 C-17.375 50.0625 -17.375 50.0625 -19 52 C-21.6875 52.3125 -21.6875 52.3125 -24 52 C-23.36915163 47.84053905 -21.97064603 44.53384545 -20.12109375 40.765625 C-19.83304871 40.17422729 -19.54500366 39.58282959 -19.24822998 38.97351074 C-18.31652172 37.06308057 -17.37706552 35.15657626 -16.4375 33.25 C-15.47746866 31.28673147 -14.51939676 29.32251517 -13.56147766 27.35821533 C-12.92825345 26.0600027 -12.29437581 24.76210858 -11.65983582 23.46453857 C-8.77630017 17.56282417 -5.97726277 11.62381995 -3.22241211 5.66113281 C-1.10248623 1.10248623 -1.10248623 1.10248623 0 0 Z " fill="#192C3D" transform="translate(326,467)"/>
<path d="M0 0 C0.66 0 1.32 0 2 0 C3.22743958 3.94674364 4.45421583 7.8936927 5.68041992 11.84082031 C6.09626036 13.17909091 6.51227126 14.51730855 6.9284668 15.85546875 C9.32424813 23.55887154 11.70443833 31.26602125 14 39 C17.69103107 31.33042396 20.60805991 23.6053751 23.1875 15.5 C23.86433812 13.38408421 24.54514788 11.26943357 25.23046875 9.15625 C25.52332764 8.23650391 25.81618652 7.31675781 26.11791992 6.36914062 C27 4 27 4 29 1 C32.125 0.8125 32.125 0.8125 35 1 C28.78348896 18.0455495 22.52222078 35.06838962 16 52 C15.01 52 14.02 52 13 52 C12.56131592 50.54762939 12.56131592 50.54762939 12.11376953 49.06591797 C11.02250622 45.45384152 9.93011914 41.84210573 8.83740234 38.23046875 C8.36574418 36.67099035 7.89438574 35.11142126 7.42333984 33.55175781 C6.7439638 31.30249167 6.06348992 29.05356011 5.3828125 26.8046875 C5.17439728 26.1138205 4.96598206 25.42295349 4.75125122 24.71115112 C3.56178174 20.78563237 2.31610314 16.88488277 1 13 C-1.13301476 16.7890783 -2.26262755 20.86922381 -3.49609375 25.01171875 C-3.97669378 26.58935114 -4.45782948 28.16682043 -4.93945312 29.74414062 C-5.69316503 32.22470832 -6.44307716 34.70620548 -7.18383789 37.19067383 C-7.90195316 39.59284165 -8.63522441 41.98993986 -9.37109375 44.38671875 C-9.58994736 45.13459152 -9.80880096 45.88246429 -10.0342865 46.65299988 C-10.59740068 48.46654648 -11.28850238 50.23936943 -12 52 C-13.485 52.495 -13.485 52.495 -15 53 C-15.56654297 51.33904297 -15.56654297 51.33904297 -16.14453125 49.64453125 C-18.95171694 41.49123767 -21.8320946 33.37396509 -24.9140625 25.3203125 C-25.16345078 24.66808212 -25.41283905 24.01585175 -25.66978455 23.34385681 C-26.91948557 20.08069399 -28.17685191 16.82068058 -29.44262695 13.5637207 C-29.9037085 12.36577881 -30.36479004 11.16783691 -30.83984375 9.93359375 C-31.25613037 8.86165771 -31.67241699 7.78972168 -32.10131836 6.68530273 C-33 4 -33 4 -33 1 C-31.02 1 -29.04 1 -27 1 C-26.61328125 2.18335938 -26.2265625 3.36671875 -25.828125 4.5859375 C-23.11700422 12.83186328 -20.33477417 20.98172078 -17 29 C-14 36.4806867 -14 36.4806867 -14 40 C-13.34 40 -12.68 40 -12 40 C-11.90525391 39.17435547 -11.90525391 39.17435547 -11.80859375 38.33203125 C-10.3814315 28.64235074 -6.96554955 19.58552257 -3.78515625 10.36523438 C-3.07612043 8.22930806 -2.44082967 6.09126446 -1.84375 3.921875 C-1 1 -1 1 0 0 Z " fill="#182837" transform="translate(203,467)"/>
<path d="M0 0 C11.55 0 23.1 0 35 0 C35 1.65 35 3.3 35 5 C25.43 5 15.86 5 6 5 C6 10.94 6 16.88 6 23 C15.24 23 24.48 23 34 23 C34 24.65 34 26.3 34 28 C24.76 28 15.52 28 6 28 C6 33.94 6 39.88 6 46 C15.57 46 25.14 46 35 46 C35 47.65 35 49.3 35 51 C23.45 51 11.9 51 0 51 C0 34.17 0 17.34 0 0 Z " fill="#223141" transform="translate(253,468)"/>
<path d="M0 0 C11.22 0 22.44 0 34 0 C34 1.65 34 3.3 34 5 C24.43 5 14.86 5 5 5 C5 10.94 5 16.88 5 23 C14.24 23 23.48 23 33 23 C33 24.65 33 26.3 33 28 C23.76 28 14.52 28 5 28 C5 33.94 5 39.88 5 46 C14.57 46 24.14 46 34 46 C34 47.65 34 49.3 34 51 C22.78 51 11.56 51 0 51 C0 34.17 0 17.34 0 0 Z " fill="#182435" transform="translate(478,468)"/>
<path d="M0 0 C1.65 0 3.3 0 5 0 C5 7.59 5 15.18 5 23 C14.9 23 24.8 23 35 23 C35 15.41 35 7.82 35 0 C36.65 0 38.3 0 40 0 C40 16.83 40 33.66 40 51 C38.35 51 36.7 51 35 51 C35 43.41 35 35.82 35 28 C25.43 28 15.86 28 6 28 C6 35.59 6 43.18 6 51 C4.02 51 2.04 51 0 51 C0 34.17 0 17.34 0 0 Z " fill="#0C1C2C" transform="translate(415,468)"/>
<path d="M0 0 C0.66 0 1.32 0 2 0 C2 0.66 2 1.32 2 2 C2.66 2 3.32 2 4 2 C4 2.66 4 3.32 4 4 C4.66 4 5.32 4 6 4 C6 4.66 6 5.32 6 6 C6.66 6 7.32 6 8 6 C8 6.66 8 7.32 8 8 C8.66 8 9.32 8 10 8 C10 8.66 10 9.32 10 10 C10.66 10 11.32 10 12 10 C12.66 11.98 13.32 13.96 14 16 C14.66 16 15.32 16 16 16 C16 17.32 16 18.64 16 20 C16.66 20 17.32 20 18 20 C22.75138092 28.82399313 26.78324302 37.81784072 26 48 C25.34 48 24.68 48 24 48 C24 47.34 24 46.68 24 46 C21.36 46 18.72 46 16 46 C16 45.34 16 44.68 16 44 C15.01 44 14.02 44 13 44 C12.34838988 42.12699975 11.70397805 40.2514945 11.0625 38.375 C10.70285156 37.33085937 10.34320313 36.28671875 9.97265625 35.2109375 C9.04249877 32.14029714 8.45253692 29.172522 8 26 C7.34 26 6.68 26 6 26 C6 25.34 6 24.68 6 24 C5.34 24 4.68 24 4 24 C4 22.68 4 21.36 4 20 C3.34 20 2.68 20 2 20 C2 19.34 2 18.68 2 18 C1.34 18 0.68 18 0 18 C-1.62109375 16.3203125 -1.62109375 16.3203125 -3.4375 14.125 C-5.58400884 11.53806278 -7.16776562 9.88815626 -10 8 C-10 7.34 -10 6.68 -10 6 C-8.02 6 -6.04 6 -4 6 C-4 6.66 -4 7.32 -4 8 C-3.34 8 -2.68 8 -2 8 C-2 7.34 -2 6.68 -2 6 C-1.34 6 -0.68 6 0 6 C0 4.02 0 2.04 0 0 Z " fill="#F8A02B" transform="translate(376,236)"/>
<path d="M0 0 C17.62831858 -0.58761062 17.62831858 -0.58761062 24 4 C26.27085158 7.75184173 26.52835882 10.62216978 26 15 C24.21523759 17.97239241 22.14791945 20.42604027 19 22 C17.55151418 22.08342159 16.09929131 22.10732861 14.6484375 22.09765625 C13.88192871 22.09515869 13.11541992 22.09266113 12.32568359 22.09008789 C11.35195801 22.08098389 10.37823242 22.07187988 9.375 22.0625 C6.28125 22.041875 3.1875 22.02125 0 22 C0 14.74 0 7.48 0 0 Z " fill="#E8EAEB" transform="translate(537,472)"/>
<path d="M0 0 C4.20490286 1.65192612 4.80982935 3.01228669 8 7 C-3.55 18.55 -15.1 30.1 -27 42 C-31.5 39.75 -31.5 39.75 -33 36 C-33.66 36 -34.32 36 -35 36 C-35 35.34 -35 34.68 -35 34 C-34.34 34 -33.68 34 -33 34 C-33 33.34 -33 32.68 -33 32 C-32.34 32 -31.68 32 -31 32 C-31 31.34 -31 30.68 -31 30 C-30.34 30 -29.68 30 -29 30 C-29 29.34 -29 28.68 -29 28 C-28.34 28 -27.68 28 -27 28 C-27 27.34 -27 26.68 -27 26 C-26.34 26 -25.68 26 -25 26 C-25 25.34 -25 24.68 -25 24 C-23.64453125 22.703125 -23.64453125 22.703125 -21.8125 21.25 C-19.38825616 19.24841992 -17.53586997 17.44304396 -15.5 15 C-13.08392118 12.10070542 -10.59930008 9.84958304 -7.7109375 7.453125 C-5.32928667 5.43035306 -3.17656333 3.2405799 -1 1 C-0.67 0.67 -0.34 0.34 0 0 Z " fill="#F1F1EF" transform="translate(387,322)"/>
<path d="M0 0 C14.19 0 28.38 0 43 0 C43 1.65 43 3.3 43 5 C36.73 5 30.46 5 24 5 C24 20.18 24 35.36 24 51 C22.35 51 20.7 51 19 51 C19 35.82 19 20.64 19 5 C12.73 5 6.46 5 0 5 C0 3.35 0 1.7 0 0 Z " fill="#0C1A27" transform="translate(356,468)"/>
<path d="M0 0 C5.11427847 1.89005944 7.70006027 4.04628366 10 9 C10.78045276 14.35167608 10.67668363 18.59650803 8.3125 23.5 C6.00645089 25.99302607 4.06154727 27.5497934 1 29 C0.34 29 -0.32 29 -1 29 C-0.60619141 29.56509277 -0.21238281 30.13018555 0.19335938 30.71240234 C1.9670654 33.26328547 3.73360376 35.81905034 5.5 38.375 C6.12003906 39.26445312 6.74007812 40.15390625 7.37890625 41.0703125 C7.96542969 41.92109375 8.55195312 42.771875 9.15625 43.6484375 C9.70087891 44.43395996 10.24550781 45.21948242 10.80664062 46.02880859 C12 48 12 48 12 50 C9.75390625 50.28515625 9.75390625 50.28515625 7 50 C3.83629306 47.07195093 1.4727775 43.52073957 -1 40 C-1.46277344 39.34773438 -1.92554688 38.69546875 -2.40234375 38.0234375 C-5.01210552 33.9555526 -5.3888742 30.76370891 -5 26 C-4.01 26 -3.02 26 -2 26 C-2 25.34 -2 24.68 -2 24 C-0.34997172 22.64613064 1.3174387 21.31321858 3 20 C4.77698099 16.44603801 4.48978436 12.46935308 3.25 8.75 C2.03325557 6.8546109 2.03325557 6.8546109 -0.125 5.4375 C-0.74375 4.963125 -1.3625 4.48875 -2 4 C-2 3.01 -2 2.02 -2 1 C-1.34 0.67 -0.68 0.34 0 0 Z " fill="#1B2D41" transform="translate(558,469)"/>
<path d="M0 0 C0 0.33 0 0.66 0 1 C-5.94 1.495 -5.94 1.495 -12 2 C-10.2984375 2.2165625 -10.2984375 2.2165625 -8.5625 2.4375 C-5 3 -5 3 -4 4 C-4.28730055 6.33944736 -4.61936779 8.6739143 -5 11 C-5.38929688 10.34644531 -5.77859375 9.69289063 -6.1796875 9.01953125 C-7.83054812 6.77044958 -7.83054812 6.77044958 -10.4453125 6.57421875 C-11.77175781 6.63029297 -11.77175781 6.63029297 -13.125 6.6875 C-14.01445312 6.71199219 -14.90390625 6.73648437 -15.8203125 6.76171875 C-17.97589735 6.76720513 -17.97589735 6.76720513 -19 8 C-20.74730139 8.15831254 -22.49830059 8.27664255 -24.25 8.375 C-28.55716726 8.72740459 -31.58045774 9.15038145 -35 12 C-35.33 12.66 -35.66 13.32 -36 14 C-37.31403276 14.70394612 -38.6520257 15.36345658 -40 16 C-43.19566272 17.63680286 -44.72785808 18.51241239 -46.5 21.6875 C-46.995 22.450625 -47.49 23.21375 -48 24 C-50.6875 24.3125 -50.6875 24.3125 -53 24 C-53.33 22.68 -53.66 21.36 -54 20 C-53.34 20 -52.68 20 -52 20 C-51.7628125 19.42121094 -51.525625 18.84242188 -51.28125 18.24609375 C-46.16605825 9.27891308 -33.98872505 4.01059175 -24.5 1.1875 C-16.44659828 -0.68881611 -8.21127087 -0.24633813 0 0 Z " fill="#3A9BD4" transform="translate(392,280)"/>
<path d="M0 0 C2.31 1.98 4.62 3.96 7 6 C5.38207319 9.23585361 4.44195891 10.83246068 2 13.25 C1.484375 13.77078125 0.96875 14.2915625 0.4375 14.828125 C-1 16 -1 16 -3 16 C-3.25910156 16.58265625 -3.51820313 17.1653125 -3.78515625 17.765625 C-5.08886248 20.16343838 -6.51745533 21.81756794 -8.4375 23.75 C-9.03433594 24.36359375 -9.63117188 24.9771875 -10.24609375 25.609375 C-12 27 -12 27 -15 27 C-16.38671875 25.46875 -16.38671875 25.46875 -17.6875 23.5 C-18.12449219 22.8503125 -18.56148438 22.200625 -19.01171875 21.53125 C-19.33785156 21.0259375 -19.66398437 20.520625 -20 20 C-13.33333333 13.33333333 -6.66666667 6.66666667 0 0 Z " fill="#2AA7DF" transform="translate(403,408)"/>
<path d="M0 0 C2.40576496 2.17764314 3.72931192 4.16703577 5.04296875 7.125 C5.39423828 7.91390625 5.74550781 8.7028125 6.10742188 9.515625 C6.64206055 10.74539063 6.64206055 10.74539063 7.1875 12 C7.55552734 12.81984375 7.92355469 13.6396875 8.30273438 14.484375 C11 20.60951994 11 20.60951994 11 24 C4.07 24 -2.86 24 -10 24 C-9.26825333 20.34126663 -8.65727202 17.88708371 -7.1875 14.609375 C-6.83429688 13.81789063 -6.48109375 13.02640625 -6.1171875 12.2109375 C-5.56417969 10.99277344 -5.56417969 10.99277344 -5 9.75 C-4.44699219 8.50863281 -4.44699219 8.50863281 -3.8828125 7.2421875 C-1.14332217 1.14332217 -1.14332217 1.14332217 0 0 Z " fill="#E7E8E8" transform="translate(326,477)"/>
<path d="M0 0 C0.66 0 1.32 0 2 0 C3.31626692 3.61973402 4 6.09567131 4 10 C4.66 10 5.32 10 6 10 C6 11.32 6 12.64 6 14 C6.66 14 7.32 14 8 14 C8 15.32 8 16.64 8 18 C8.66 18 9.32 18 10 18 C10 18.66 10 19.32 10 20 C10.66 20 11.32 20 12 20 C12 20.66 12 21.32 12 22 C10.68 22 9.36 22 8 22 C8 22.66 8 23.32 8 24 C6.68 24 5.36 24 4 24 C4 24.66 4 25.32 4 26 C2.35 26 0.7 26 -1 26 C-1.33 24.68 -1.66 23.36 -2 22 C-2.66 22 -3.32 22 -4 22 C-4 20.68 -4 19.36 -4 18 C-4.66 18 -5.32 18 -6 18 C-6 16.68 -6 15.36 -6 14 C-6.66 14 -7.32 14 -8 14 C-8 12.02 -8 10.04 -8 8 C-6.02 8 -4.04 8 -2 8 C-2 6.68 -2 5.36 -2 4 C-1.34 4 -0.68 4 0 4 C0 2.68 0 1.36 0 0 Z " fill="#F69B26" transform="translate(274,304)"/>
<path d="M0 0 C1.17539996 0.92652701 2.34010577 1.86663387 3.5 2.8125 C4.1496875 3.33457031 4.799375 3.85664063 5.46875 4.39453125 C7 6 7 6 7 9 C4.8125 11.48046875 4.8125 11.48046875 2 14.1875 C1.071875 15.08855469 0.14375 15.98960937 -0.8125 16.91796875 C-1.534375 17.60503906 -2.25625 18.29210937 -3 19 C-6.32759923 17.44805246 -8.48580485 15.69378051 -11 13 C-9.46356148 9.31930113 -7.21849055 7.01224796 -4.375 4.25 C-3.55773437 3.45078125 -2.74046875 2.6515625 -1.8984375 1.828125 C-0.95871094 0.92320312 -0.95871094 0.92320312 0 0 Z " fill="#2DAAE4" transform="translate(338,414)"/>
<path d="M0 0 C0.99 0.33 1.98 0.66 3 1 C3 1.66 3 2.32 3 3 C3.66 3 4.32 3 5 3 C5 3.66 5 4.32 5 5 C5.66 5 6.32 5 7 5 C6.48223379 9.10447392 4.35372556 10.95699523 1.4375 13.75 C0.19806641 14.94882812 0.19806641 14.94882812 -1.06640625 16.171875 C-1.70449219 16.77515625 -2.34257812 17.3784375 -3 18 C-7.20490286 16.34807388 -7.80982935 14.98771331 -11 11 C-7.37 7.37 -3.74 3.74 0 0 Z " fill="#2AA9E1" transform="translate(301,393)"/>
<path d="M0 0 C2.31 1.98 4.62 3.96 7 6 C5.38207319 9.23585361 4.44195891 10.83246068 2 13.25 C1.484375 13.77078125 0.96875 14.2915625 0.4375 14.828125 C-1 16 -1 16 -3 16 C-3 16.66 -3 17.32 -3 18 C-7.20490286 16.34807388 -7.80982935 14.98771331 -11 11 C-7.37 7.37 -3.74 3.74 0 0 Z " fill="#26AAE0" transform="translate(375,436)"/>
<path d="M0 0 C2.74485208 2.36168133 3.6970358 4.42157188 4.75390625 7.859375 C5.05103516 8.81070312 5.34816406 9.76203125 5.65429688 10.7421875 C5.95400391 11.73476563 6.25371094 12.72734375 6.5625 13.75 C6.86607422 14.72710937 7.16964844 15.70421875 7.48242188 16.7109375 C8.75879282 20.83759216 9.9898005 24.94762257 11.02734375 29.140625 C11.34832031 30.08421875 11.66929687 31.0278125 12 32 C12.99 32.33 13.98 32.66 15 33 C14.53816182 37.15654359 14.11990898 39.21466571 11 42 C8.33986821 35.18557148 6.07088389 28.2561482 3.87353516 21.28100586 C3.45564289 19.96171637 3.03273338 18.64400629 2.60498047 17.32788086 C1.98056488 15.40581441 1.37287064 13.47834111 0.765625 11.55078125 C0.40243164 10.41294189 0.03923828 9.27510254 -0.33496094 8.1027832 C-1.01116411 4.94791313 -0.89513745 3.06602479 0 0 Z " fill="#1A2839" transform="translate(206,478)"/>
<path d="M0 0 C3.05419297 3.69008172 5.06593095 7.80017954 7.1875 12.0625 C7.55552734 12.78244141 7.92355469 13.50238281 8.30273438 14.24414062 C8.65013672 14.93830078 8.99753906 15.63246094 9.35546875 16.34765625 C9.82956177 17.29137085 9.82956177 17.29137085 10.31323242 18.25415039 C11 20 11 20 11 23 C9.02 23 7.04 23 5 23 C4.16235732 21.04350603 3.33000941 19.08474444 2.5 17.125 C2.0359375 16.03445313 1.571875 14.94390625 1.09375 13.8203125 C0 11 0 11 0 9 C-8.91 9 -17.82 9 -27 9 C-27 8.67 -27 8.34 -27 8 C-14.625 7.505 -14.625 7.505 -2 7 C-1.67 5.68 -1.34 4.36 -1 3 C-0.67 2.01 -0.34 1.02 0 0 Z " fill="#0D1D29" transform="translate(340,496)"/>
<path d="M0 0 C-3.75759185 2.50506123 -6.72027577 2.2604463 -11.0625 2.1875 C-11.79533203 2.18685547 -12.52816406 2.18621094 -13.28320312 2.18554688 C-18.71875 2.140625 -18.71875 2.140625 -21 1 C-20.34 1.66 -19.68 2.32 -19 3 C-18.75949097 4.98684692 -18.75949097 4.98684692 -18.77294922 7.44970703 C-18.77310028 8.37051056 -18.77325134 9.29131409 -18.77340698 10.24002075 C-18.78372955 11.23589203 -18.79405212 12.23176331 -18.8046875 13.2578125 C-18.8075174 14.27600067 -18.81034729 15.29418884 -18.81326294 16.3432312 C-18.8244823 19.603939 -18.84959004 22.86437484 -18.875 26.125 C-18.88502753 28.33202729 -18.89415377 30.53905888 -18.90234375 32.74609375 C-18.92442732 38.16415572 -18.95792205 43.58205843 -19 49 C-19.99 49 -20.98 49 -22 49 C-22 32.83 -22 16.66 -22 0 C-2 -1 -2 -1 0 0 Z " fill="#27374B" transform="translate(555,469)"/>
<path d="M0 0 C3.95716459 4.98946839 4 7.20525983 4 14 C-12.83 14 -29.66 14 -47 14 C-46.67 12.68 -46.34 11.36 -46 10 C-45.34 10 -44.68 10 -44 10 C-44 10.66 -44 11.32 -44 12 C-21.23 11.505 -21.23 11.505 2 11 C1.34 9.35 0.68 7.7 0 6 C-0.125 2.6875 -0.125 2.6875 0 0 Z " fill="#2C91CB" transform="translate(514,360)"/>
<path d="M0 0 C1.39136534 0.04232649 2.78256436 0.09034885 4.17358398 0.14282227 C5.27016579 0.17823875 5.27016579 0.17823875 6.38890076 0.21437073 C8.7326823 0.29117936 11.07614756 0.37512882 13.41967773 0.45922852 C15.00494852 0.51243203 16.59023491 0.56517253 18.17553711 0.61743164 C22.06961905 0.74681756 25.96343184 0.88260983 29.85717773 1.02172852 C29.85717773 1.35172852 29.85717773 1.68172852 29.85717773 2.02172852 C20.28717773 2.02172852 10.71717773 2.02172852 0.85717773 2.02172852 C0.85717773 9.61172852 0.85717773 17.20172852 0.85717773 25.02172852 C-0.79282227 24.69172852 -2.44282227 24.36172852 -4.14282227 24.02172852 C-4.17169463 20.20924426 -4.18957718 16.39678782 -4.20532227 12.58422852 C-4.21370117 11.49561523 -4.22208008 10.40700195 -4.23071289 9.28540039 C-4.23393555 8.25092773 -4.2371582 7.21645508 -4.24047852 6.15063477 C-4.24571533 5.19229736 -4.25095215 4.23395996 -4.25634766 3.24658203 C-4.07625584 -0.28283028 -3.6189891 0.02502059 0 0 Z " fill="#32485B" transform="translate(420.142822265625,493.978271484375)"/>
<path d="M0 0 C0.33 0 0.66 0 1 0 C1 5.94 1 11.88 1 18 C10.9 18 20.8 18 31 18 C30.67 19.32 30.34 20.64 30 22 C19.77 22 9.54 22 -1 22 C-0.67 14.74 -0.34 7.48 0 0 Z " fill="#294357" transform="translate(481,496)"/>
<path d="M0 0 C0.99 0 1.98 0 3 0 C3 16.17 3 32.34 3 49 C2.01 49 1.02 49 0 49 C0 41.74 0 34.48 0 27 C0.33 27 0.66 27 1 27 C1 25.35 1 23.7 1 22 C0.67 22 0.34 22 0 22 C0 14.74 0 7.48 0 0 Z " fill="#273B48" transform="translate(451,469)"/>
<path d="M0 0 C10.56 0 21.12 0 32 0 C32 0.66 32 1.32 32 2 C16.655 2.495 16.655 2.495 1 3 C1 18.18 1 33.36 1 49 C0.67 49 0.34 49 0 49 C0 32.83 0 16.66 0 0 Z " fill="#2A3653" transform="translate(255,469)"/>
<path d="M0 0 C0.66 0.33 1.32 0.66 2 1 C1.67 1.66 1.34 2.32 1 3 C1.556875 2.690625 2.11375 2.38125 2.6875 2.0625 C5.12540433 0.94238179 7.36224186 0.43962636 10 0 C9.195625 0.61875 8.39125 1.2375 7.5625 1.875 C4.96125481 3.74164041 4.96125481 3.74164041 4 6 C2.68596724 6.70394612 1.3479743 7.36345658 0 8 C-3.19566272 9.63680286 -4.72785808 10.51241239 -6.5 13.6875 C-6.995 14.450625 -7.49 15.21375 -8 16 C-10.6875 16.3125 -10.6875 16.3125 -13 16 C-13.33 14.68 -13.66 13.36 -14 12 C-13.34 12 -12.68 12 -12 12 C-11.77570313 11.42765625 -11.55140625 10.8553125 -11.3203125 10.265625 C-9.6219841 7.35133367 -7.54119931 5.80092255 -4.875 3.75 C-3.96492188 3.04359375 -3.05484375 2.3371875 -2.1171875 1.609375 C-1.41851562 1.07828125 -0.71984375 0.5471875 0 0 Z " fill="#299BD6" transform="translate(352,288)"/>
<path d="M0 0 C0.99 0 1.98 0 3 0 C3 14.85 3 29.7 3 45 C2.01 45 1.02 45 0 45 C0 30.15 0 15.3 0 0 Z " fill="#2A384A" transform="translate(376,473)"/>
<path d="M0 0 C2.31 1.98 4.62 3.96 7 6 C4.73106888 10.53786224 2.90133466 11.94678157 -1 15 C-1 14.01 -1 13.02 -1 12 C-1.66 12 -2.32 12 -3 12 C-3 11.34 -3 10.68 -3 10 C-3.66 10 -4.32 10 -5 10 C-5 9.34 -5 8.68 -5 8 C-4.34 8 -3.68 8 -3 8 C-3 7.34 -3 6.68 -3 6 C-3.66 5.67 -4.32 5.34 -5 5 C-3.35 3.35 -1.7 1.7 0 0 Z " fill="#21A2D9" transform="translate(403,408)"/>
<path d="M0 0 C0.83790789 1.78953185 1.67019396 3.58169695 2.5 5.375 C2.9640625 6.37273437 3.428125 7.37046875 3.90625 8.3984375 C5 11 5 11 5 13 C1.37 13 -2.26 13 -6 13 C-5.719172 11.01926635 -5.42503386 9.04041552 -5.125 7.0625 C-4.96257812 5.96035156 -4.80015625 4.85820312 -4.6328125 3.72265625 C-4.42398437 2.82417969 -4.21515625 1.92570312 -4 1 C-2 0 -2 0 0 0 Z " fill="#EDECE8" transform="translate(330,483)"/>
<path d="M0 0 C-0.99 0.495 -0.99 0.495 -2 1 C-1.67 1.66 -1.34 2.32 -1 3 C-7.93 3 -14.86 3 -22 3 C-22.33 15.87 -22.66 28.74 -23 42 C-23.33 42 -23.66 42 -24 42 C-24 28.14 -24 14.28 -24 0 C-18.06 0 -12.12 0 -6 0 C-3.50907189 -1.24546405 -2.58919267 -0.7767578 0 0 Z " fill="#1A2D44" transform="translate(558,470)"/>
<path d="M0 0 C2.55773524 2.24851917 3.61318053 4.1122935 4.640625 7.34375 C4.90617188 8.17777344 5.17171875 9.01179688 5.4453125 9.87109375 C5.84363281 11.17240234 5.84363281 11.17240234 6.25 12.5 C6.53101563 13.36753906 6.81203125 14.23507812 7.1015625 15.12890625 C9.12743166 21.61770501 9.12743166 21.61770501 8 25 C4.28283502 21.28283502 2.86883634 18.16688948 1.3125 13.1875 C1.07466797 12.47529297 0.83683594 11.76308594 0.59179688 11.02929688 C-0.68061207 6.99564859 -1.35089541 4.16730765 0 0 Z " fill="#121B29" transform="translate(206,478)"/>
<path d="M0 0 C0.99 0.33 1.98 0.66 3 1 C3 5.62 3 10.24 3 15 C2.34 15 1.68 15 1 15 C1 15.66 1 16.32 1 17 C9.91 17 18.82 17 28 17 C28 17.33 28 17.66 28 18 C18.76 18 9.52 18 0 18 C0 12.06 0 6.12 0 0 Z " fill="#DDE4E5" transform="translate(259,473)"/>
<path d="M0 0 C0.66 0.66 1.32 1.32 2 2 C1.50628906 2.38671875 1.01257813 2.7734375 0.50390625 3.171875 C-0.13675781 3.69265625 -0.77742188 4.2134375 -1.4375 4.75 C-2.07558594 5.26046875 -2.71367187 5.7709375 -3.37109375 6.296875 C-5.18810554 8.19667629 -5.60423197 9.43586908 -6 12 C-5.34 12 -4.68 12 -4 12 C-4 12.66 -4 13.32 -4 14 C-2.35 14 -0.7 14 1 14 C-0.32 15.65 -1.64 17.3 -3 19 C-6.36591866 17.55746343 -8.51047079 15.66735273 -11 13 C-9.46356148 9.31930113 -7.21849055 7.01224796 -4.375 4.25 C-3.55773437 3.45078125 -2.74046875 2.6515625 -1.8984375 1.828125 C-0.95871094 0.92320312 -0.95871094 0.92320312 0 0 Z " fill="#3EAFDC" transform="translate(338,414)"/>
<path d="M0 0 C1.98 0 3.96 0 6 0 C4.35 4.29 2.7 8.58 1 13 C0.01 12.67 -0.98 12.34 -2 12 C-3.01911045 8.10885099 -3.16782969 6.39403493 -1.5625 2.625 C-1.046875 1.75875 -0.53125 0.8925 0 0 Z " fill="#1B2D41" transform="translate(232,468)"/>
<path d="M0 0 C-0.33 2.31 -0.66 4.62 -1 7 C-1.38929688 6.34644531 -1.77859375 5.69289063 -2.1796875 5.01953125 C-3.83054812 2.77044958 -3.83054812 2.77044958 -6.4453125 2.57421875 C-7.77175781 2.63029297 -7.77175781 2.63029297 -9.125 2.6875 C-10.45917969 2.72423828 -10.45917969 2.72423828 -11.8203125 2.76171875 C-13.97589735 2.76720513 -13.97589735 2.76720513 -15 4 C-16.85287502 4.07226502 -18.70833878 4.0838122 -20.5625 4.0625 C-21.57441406 4.05347656 -22.58632813 4.04445313 -23.62890625 4.03515625 C-24.41136719 4.02355469 -25.19382812 4.01195312 -26 4 C-19.85361239 -2.14638761 -8.03126565 -0.17544027 0 0 Z " fill="#85CDEB" transform="translate(388,284)"/>
<path d="M0 0 C0.66 0.33 1.32 0.66 2 1 C2 1.66 2 2.32 2 3 C2.99 3.33 3.98 3.66 5 4 C4.34 5.98 3.68 7.96 3 10 C2.34 10 1.68 10 1 10 C1 10.66 1 11.32 1 12 C-1 13.625 -1 13.625 -3 15 C-4.43410153 11.21180727 -3.51009497 8.93478721 -2.0625 5.25 C-1.49208984 3.77273438 -1.49208984 3.77273438 -0.91015625 2.265625 C-0.60980469 1.51796875 -0.30945313 0.7703125 0 0 Z " fill="#1D2E45" transform="translate(228,477)"/>
<path d="M0 0 C1.32 0 2.64 0 4 0 C2.25 3.875 2.25 3.875 0 5 C-0.66 4.67 -1.32 4.34 -2 4 C-2 4.66 -2 5.32 -2 6 C-4.5 7.5 -4.5 7.5 -7 9 C-8.7041054 10.62836738 -10.38025441 12.28769752 -12 14 C-12.99 13.67 -13.98 13.34 -15 13 C-9.57534247 6.21917808 -9.57534247 6.21917808 -6 4 C-5.34 4 -4.68 4 -4 4 C-4 3.34 -4 2.68 -4 2 C-2.68 2 -1.36 2 0 2 C0 1.34 0 0.68 0 0 Z " fill="#37B0E0" transform="translate(278,328)"/>
<path d="M0 0 C12.54 0 25.08 0 38 0 C38 0.33 38 0.66 38 1 C26.78 1 15.56 1 4 1 C4 1.66 4 2.32 4 3 C6.64 3 9.28 3 12 3 C12 3.33 12 3.66 12 4 C8.04 4 4.08 4 0 4 C0 2.68 0 1.36 0 0 Z " fill="#22313B" transform="translate(356,469)"/>
<path d="M0 0 C-0.20703125 1.87109375 -0.20703125 1.87109375 -1 4 C-3.07421875 5.16015625 -3.07421875 5.16015625 -5.6875 6.0625 C-9.6289015 7.49316654 -13.29283524 9.04886065 -17 11 C-17 10.34 -17 9.68 -17 9 C-16.34 9 -15.68 9 -15 9 C-14.87044922 8.07767578 -14.87044922 8.07767578 -14.73828125 7.13671875 C-14 5 -14 5 -12.29296875 3.76953125 C-11.59816406 3.45371094 -10.90335937 3.13789063 -10.1875 2.8125 C-9.50042969 2.48894531 -8.81335938 2.16539062 -8.10546875 1.83203125 C-5.38532532 0.75709516 -2.93414859 0 0 0 Z " fill="#1E96D4" transform="translate(368,282)"/>
<path d="M0 0 C0.4125 0.556875 0.825 1.11375 1.25 1.6875 C2.51049933 3.35315983 3.83129031 4.97379722 5.1875 6.5625 C7 9 7 9 7 12 C5.02 12 3.04 12 1 12 C-0.32 8.7 -1.64 5.4 -3 2 C-2.01 1.34 -1.02 0.68 0 0 Z " fill="#1B2D3E" transform="translate(344,507)"/>
<path d="M0 0 C0.66 0 1.32 0 2 0 C2.70453003 1.86866762 3.38791688 3.74531416 4.0625 5.625 C4.44535156 6.66914063 4.82820312 7.71328125 5.22265625 8.7890625 C6.06577837 12.27170764 5.82495611 14.54452348 5 18 C4.67 18 4.34 18 4 18 C3.67 16.02 3.34 14.04 3 12 C2.01 12 1.02 12 0 12 C0.33 10.68 0.66 9.36 1 8 C0.34 8 -0.32 8 -1 8 C-1.625 5.6875 -1.625 5.6875 -2 3 C-1.34 2.01 -0.68 1.02 0 0 Z " fill="#23323E" transform="translate(203,467)"/>
<path d="M0 0 C-0.66 0 -1.32 0 -2 0 C-2.33 1.65 -2.66 3.3 -3 5 C-10.92 5.495 -10.92 5.495 -19 6 C-16.44761309 3.44761309 -13.982213 2.62898015 -10.625 1.3125 C-8.91183594 0.62607422 -8.91183594 0.62607422 -7.1640625 -0.07421875 C-4.11797309 -0.96548195 -2.87781411 -1.169555 0 0 Z " fill="#39AEE0" transform="translate(242,368)"/>
<path d="M0 0 C0.99 0.99 1.98 1.98 3 3 C3.66 2.34 4.32 1.68 5 1 C5.86627399 2.59766103 6.71766465 4.20339944 7.5625 5.8125 C8.27599609 7.15248047 8.27599609 7.15248047 9.00390625 8.51953125 C10 11 10 11 9 14 C7.171875 13.8046875 7.171875 13.8046875 5 13 C3.515625 10.8203125 3.515625 10.8203125 2.25 8.125 C1.60804688 6.79855469 1.60804688 6.79855469 0.953125 5.4453125 C0 3 0 3 0 0 Z " fill="#162531" transform="translate(329,480)"/>
<path d="M0 0 C1.32 0.99 2.64 1.98 4 3 C3.07544441 4.508013 2.1349253 6.00624917 1.1875 7.5 C0.66542969 8.3353125 0.14335937 9.170625 -0.39453125 10.03125 C-0.92433594 10.6809375 -1.45414062 11.330625 -2 12 C-2.99 12 -3.98 12 -5 12 C-5.58305225 8.15185513 -4.7002883 6.23691365 -2.5 3.1875 C-1.67780256 2.11635945 -0.84795951 1.0508641 0 0 Z " fill="#27A5E0" transform="translate(337,302)"/>
<path d="M0 0 C1.10408203 0.01353516 1.10408203 0.01353516 2.23046875 0.02734375 C4.0287888 0.05069856 5.82693911 0.08656164 7.625 0.125 C7.625 0.455 7.625 0.785 7.625 1.125 C6.490625 1.24875 5.35625 1.3725 4.1875 1.5 C2.4240625 1.809375 2.4240625 1.809375 0.625 2.125 C0.295 2.785 -0.035 3.445 -0.375 4.125 C-5.325 4.125 -10.275 4.125 -15.375 4.125 C-14.375 2.125 -14.375 2.125 -11.8359375 1.0078125 C-7.77086845 -0.02910127 -4.16766632 -0.09797407 0 0 Z " fill="#F3EAE9" transform="translate(332.375,231.875)"/>
<path d="M0 0 C5.28 0 10.56 0 16 0 C15.01 0.495 15.01 0.495 14 1 C14.33 1.99 14.66 2.98 15 4 C14.0988845 7.39651226 13.50320403 9.49679597 11 12 C11 9.03 11 6.06 11 3 C7.37 2.34 3.74 1.68 0 1 C0 0.67 0 0.34 0 0 Z " fill="#2086C1" transform="translate(376,281)"/>
<path d="M0 0 C1.40742022 2.81484045 0.66652164 4.56936113 0.0625 7.625 C-0.13214844 8.62789063 -0.32679688 9.63078125 -0.52734375 10.6640625 C-0.76130859 11.82035156 -0.76130859 11.82035156 -1 13 C-1.66 13 -2.32 13 -3 13 C-3.33 13.66 -3.66 14.32 -4 15 C-5.46355943 9.67796569 -4.58179834 5.76552205 -2 1 C-1.34 0.67 -0.68 0.34 0 0 Z " fill="#243241" transform="translate(197,490)"/>
<path d="M0 0 C0.99 0 1.98 0 3 0 C3 0.66 3 1.32 3 2 C4.32 2 5.64 2 7 2 C7 2.66 7 3.32 7 4 C6.34 4 5.68 4 5 4 C4.34 5.32 3.68 6.64 3 8 C1.68 8 0.36 8 -1 8 C-1.04241723 5.66705225 -1.04092937 3.33297433 -1 1 C-0.67 0.67 -0.34 0.34 0 0 Z " fill="#1CAAE1" transform="translate(395,420)"/>
<path d="M0 0 C1.23593891 3.70781672 0.5678132 4.67510253 -0.9375 8.1875 C-1.31777344 9.08855469 -1.69804687 9.98960937 -2.08984375 10.91796875 C-2.39019531 11.60503906 -2.69054687 12.29210937 -3 13 C-4.32 12.01 -5.64 11.02 -7 10 C-6.34 7.69 -5.68 5.38 -5 3 C-3.35 2.67 -1.7 2.34 0 2 C0 1.34 0 0.68 0 0 Z " fill="#142332" transform="translate(229,487)"/>
<path d="M0 0 C-0.804375 0.45375 -1.60875 0.9075 -2.4375 1.375 C-5.08856572 2.74725665 -5.08856572 2.74725665 -6 5 C-7.31403276 5.70394612 -8.6520257 6.36345658 -10 7 C-14.05635406 9.07764476 -15.91310989 10.9360561 -18 15 C-18.99 14.67 -19.98 14.34 -21 14 C-16.62015021 8.24490728 -7.85633731 -2.6187791 0 0 Z " fill="#57B9E8" transform="translate(362,289)"/>
<path d="M0 0 C5.36048242 0.33503015 9.09289348 3.5873412 13 7 C13 7.33 13 7.66 13 8 C10.36 8 7.72 8 5 8 C5 6.35 5 4.7 5 3 C3.68 3 2.36 3 1 3 C0.67 2.01 0.34 1.02 0 0 Z " fill="#1A83C0" transform="translate(459,328)"/>
<path d="M0 0 C1 3 1 3 -0.125 5.6875 C-2 8 -2 8 -4.6875 8.3125 C-5.450625 8.209375 -6.21375 8.10625 -7 8 C-6.67 6.35 -6.34 4.7 -6 3 C-3 2 -3 2 0 2 C0 1.34 0 0.68 0 0 Z " fill="#132530" transform="translate(309,511)"/>
<path d="M0 0 C1.32 0 2.64 0 4 0 C4.6875 1.8125 4.6875 1.8125 5 4 C3.4657452 6.18025682 2.35666511 6.88790525 -0.1875 7.6875 C-0.785625 7.790625 -1.38375 7.89375 -2 8 C-2.33 7.34 -2.66 6.68 -3 6 C-2.06553465 3.96855359 -1.06775224 1.96466413 0 0 Z " fill="#193140" transform="translate(307,506)"/>
<path d="M0 0 C6.36527755 -0.5535024 11.31181071 1.15070592 17 4 C17.66 4.66 18.32 5.32 19 6 C17.35 6 15.7 6 14 6 C14 5.34 14 4.68 14 4 C9.34500026 3.18537505 4.69023454 2.56606279 0 2 C0 1.34 0 0.68 0 0 Z " fill="#167DBF" transform="translate(490,348)"/>
<path d="M0 0 C2.7710688 2.34591852 3.52059284 4.14776201 4.1875 7.6875 C4.34605469 8.49574219 4.50460938 9.30398438 4.66796875 10.13671875 C4.77753906 10.75160156 4.88710937 11.36648438 5 12 C4.01 12.66 3.02 13.32 2 14 C-1.62870159 4.58997722 -1.62870159 4.58997722 0 0 Z " fill="#101D27" transform="translate(206,478)"/>
<path d="M0 0 C1.5625 1.25 1.5625 1.25 3 3 C3.0625 5 3.0625 5 2 7 C-1.0625 8.75 -1.0625 8.75 -4 10 C-3.52449439 8.51965236 -3.04448784 7.04074979 -2.5625 5.5625 C-2.29566406 4.73878906 -2.02882813 3.91507812 -1.75390625 3.06640625 C-1 1 -1 1 0 0 Z " fill="#D7DBDA" transform="translate(326,477)"/>
<path d="M0 0 C-1.56069006 3.83078469 -4.06814114 6.14143762 -7 9 C-7.99 10.485 -7.99 10.485 -9 12 C-9.66 11.01 -10.32 10.02 -11 9 C-9.54782324 7.49403892 -8.08807139 5.99537896 -6.625 4.5 C-5.40683594 3.24703125 -5.40683594 3.24703125 -4.1640625 1.96875 C-2 0 -2 0 0 0 Z " fill="#28ACDB" transform="translate(320,376)"/>
<path d="M0 0 C2.67927341 4.01891012 2.15601248 6.24161923 2 11 C0.68 11 -0.64 11 -2 11 C-3.14947895 7.44706507 -3.0868937 6.20023331 -1.5625 2.6875 C-1.046875 1.800625 -0.53125 0.91375 0 0 Z " fill="#2B3D4C" transform="translate(187,501)"/>
<path d="M0 0 C-0.99 0.495 -0.99 0.495 -2 1 C-1.67 1.66 -1.34 2.32 -1 3 C-7.6 2.67 -14.2 2.34 -21 2 C-21 1.67 -21 1.34 -21 1 C-19.41058594 0.90912109 -19.41058594 0.90912109 -17.7890625 0.81640625 C-16.40102779 0.73199873 -15.01300768 0.64735083 -13.625 0.5625 C-12.92632813 0.52318359 -12.22765625 0.48386719 -11.5078125 0.44335938 C-0.76104526 -0.22831358 -0.76104526 -0.22831358 0 0 Z " fill="#08112E" transform="translate(558,470)"/>
<path d="M0 0 C0.33 0.66 0.66 1.32 1 2 C1.66 2.33 2.32 2.66 3 3 C1.35 4.32 -0.3 5.64 -2 7 C-2.99 6.34 -3.98 5.68 -5 5 C-4.67 3.68 -4.34 2.36 -4 1 C-2.68 0.67 -1.36 0.34 0 0 Z " fill="#223749" transform="translate(563,490)"/>
<path d="M0 0 C0.66 0 1.32 0 2 0 C1.91266424 1.60517097 1.80447776 3.20921662 1.6875 4.8125 C1.62949219 5.70582031 1.57148438 6.59914063 1.51171875 7.51953125 C0.93686419 10.30604 0.1793144 11.24135754 -2 13 C-3.18771723 9.57056481 -2.80226223 7.62215325 -1.5625 4.25 C-1.27503906 3.45078125 -0.98757812 2.6515625 -0.69140625 1.828125 C-0.46324219 1.22484375 -0.23507813 0.6215625 0 0 Z " fill="#273648" transform="translate(227,479)"/>
<path d="M0 0 C0.33 0 0.66 0 1 0 C1 2.64 1 5.28 1 8 C1.99 7.67 2.98 7.34 4 7 C3.67 8.65 3.34 10.3 3 12 C0.03 11.505 0.03 11.505 -3 11 C-2.690625 10.484375 -2.38125 9.96875 -2.0625 9.4375 C-0.70940713 6.33334577 -0.38640576 3.34884993 0 0 Z " fill="#0E1C2B" transform="translate(563,480)"/>
<path d="M0 0 C-0.33 0.99 -0.66 1.98 -1 3 C-4.63 3 -8.26 3 -12 3 C-8.40198016 -0.59801984 -4.84291279 -0.09137571 0 0 Z " fill="#77C5EB" transform="translate(374,285)"/>
<path d="M0 0 C1.32 0.33 2.64 0.66 4 1 C2.84826645 3.46800047 1.95216435 5.04783565 0 7 C-2.125 6.625 -2.125 6.625 -4 6 C-2.68 4.02 -1.36 2.04 0 0 Z " fill="#1F94D1" transform="translate(420,361)"/>
<path d="M0 0 C0.33 0.66 0.66 1.32 1 2 C0.0625 4.125 0.0625 4.125 -1 6 C-0.34 6 0.32 6 1 6 C0.25 10.75 0.25 10.75 -2 13 C-3.35384615 5.73846154 -3.35384615 5.73846154 -1.5625 2 C-1.046875 1.34 -0.53125 0.68 0 0 Z " fill="#10222F" transform="translate(324,471)"/>
<path d="M0 0 C0.66 0 1.32 0 2 0 C0.52307692 5.66153846 0.52307692 5.66153846 -2.125 7.375 C-3.053125 7.684375 -3.053125 7.684375 -4 8 C-4 6.02 -4 4.04 -4 2 C-2.68 2 -1.36 2 0 2 C0 1.34 0 0.68 0 0 Z " fill="#FE991F" transform="translate(392,268)"/>
<path d="M0 0 C5.61 0 11.22 0 17 0 C17.33 0.66 17.66 1.32 18 2 C16.68 2.33 15.36 2.66 14 3 C14 2.34 14 1.68 14 1 C9.38 1 4.76 1 0 1 C0 0.67 0 0.34 0 0 Z " fill="#1F7DB2" transform="translate(436,325)"/>
<path d="M0 0 C1.98 0.66 3.96 1.32 6 2 C6 2.66 6 3.32 6 4 C5.34 4 4.68 4 4 4 C4 4.66 4 5.32 4 6 C2.68 5.67 1.36 5.34 0 5 C0 3.35 0 1.7 0 0 Z " fill="#F6ECE8" transform="translate(360,240)"/>
<path d="M0 0 C1.65 0 3.3 0 5 0 C4.25 4.75 4.25 4.75 2 7 C0.5393715 4.35261084 0 3.10551666 0 0 Z " fill="#142331" transform="translate(182,500)"/>
<path d="M0 0 C0.66 0.33 1.32 0.66 2 1 C2.94934202 3.92713788 3.23176473 5.42831368 2.0625 8.3125 C1.5365625 9.1478125 1.5365625 9.1478125 1 10 C0.67 8.02 0.34 6.04 0 4 C-0.99 4 -1.98 4 -3 4 C-2.67 3.01 -2.34 2.02 -2 1 C-1.34 0.67 -0.68 0.34 0 0 Z " fill="#2B3D4D" transform="translate(206,475)"/>
<path d="M0 0 C1.32 0 2.64 0 4 0 C4 0.66 4 1.32 4 2 C4.66 2.33 5.32 2.66 6 3 C3.525 4.485 3.525 4.485 1 6 C0 5 0 5 -0.0625 2.4375 C-0.041875 1.633125 -0.02125 0.82875 0 0 Z " fill="#3FABDF" transform="translate(340,362)"/>
<path d="M0 0 C0.99 0 1.98 0 3 0 C4 3 4 3 3.0625 5.1875 C2.5365625 6.0846875 2.5365625 6.0846875 2 7 C1.34 7 0.68 7 0 7 C-1.125 2.25 -1.125 2.25 0 0 Z " fill="#243443" transform="translate(188,513)"/>
<path d="M0 0 C1.32 1.32 2.64 2.64 4 4 C3.34 5.32 2.68 6.64 2 8 C0.4375 6.8125 0.4375 6.8125 -1 5 C-0.6875 2.3125 -0.6875 2.3125 0 0 Z " fill="#132136" transform="translate(230,473)"/>
<path d="M0 0 C1.32 1.32 2.64 2.64 4 4 C3.01 5.32 2.02 6.64 1 8 C0.67 7.67 0.34 7.34 0 7 C-0.66 7.99 -1.32 8.98 -2 10 C-1.54177532 6.53058454 -1.10868317 3.32604951 0 0 Z " fill="#101D2A" transform="translate(201,472)"/>
<path d="M0 0 C0.66 0 1.32 0 2 0 C2.33 0.99 2.66 1.98 3 3 C2.01 3.33 1.02 3.66 0 4 C0 4.66 0 5.32 0 6 C-0.66 6 -1.32 6 -2 6 C-2 5.34 -2 4.68 -2 4 C-2.66 4 -3.32 4 -4 4 C-4 3.34 -4 2.68 -4 2 C-2.68 2 -1.36 2 0 2 C0 1.34 0 0.68 0 0 Z " fill="#F6B94E" transform="translate(300,226)"/>
<path d="M0 0 C0 2.31 0 4.62 0 7 C-0.99 7.495 -0.99 7.495 -2 8 C-2 7.01 -2 6.02 -2 5 C-2.99 4.67 -3.98 4.34 -5 4 C-1.125 0 -1.125 0 0 0 Z " fill="#1B89CA" transform="translate(432,351)"/>
<path d="M0 0 C0.66 0 1.32 0 2 0 C2 0.66 2 1.32 2 2 C2.66 2 3.32 2 4 2 C4 2.66 4 3.32 4 4 C4.66 4 5.32 4 6 4 C6 4.66 6 5.32 6 6 C4.68 6 3.36 6 2 6 C2 5.34 2 4.68 2 4 C1.34 4 0.68 4 0 4 C0 2.68 0 1.36 0 0 Z " fill="#FC9A16" transform="translate(280,320)"/>
<path d="M0 0 C1.32 0 2.64 0 4 0 C4 0.66 4 1.32 4 2 C4.66 2 5.32 2 6 2 C6 2.66 6 3.32 6 4 C5.34 4 4.68 4 4 4 C4 4.66 4 5.32 4 6 C3.34 6 2.68 6 2 6 C2 4.68 2 3.36 2 2 C1.34 2 0.68 2 0 2 C0 1.34 0 0.68 0 0 Z " fill="#F8A33E" transform="translate(266,316)"/>
<path d="M0 0 C0.33 0.66 0.66 1.32 1 2 C0.67 2.99 0.34 3.98 0 5 C-0.66 5 -1.32 5 -2 5 C-2 5.66 -2 6.32 -2 7 C-3.32 6.67 -4.64 6.34 -6 6 C-4.02 4.02 -2.04 2.04 0 0 Z " fill="#EDEAF2" transform="translate(408,359)"/>
<path d="M0 0 C0.66 1.32 1.32 2.64 2 4 C0.625 6 0.625 6 -1 8 C-1.66 8 -2.32 8 -3 8 C-1.125 2.25 -1.125 2.25 0 0 Z " fill="#47B3DE" transform="translate(259,346)"/>
<path d="M0 0 C0.66 0 1.32 0 2 0 C1.67 2.64 1.34 5.28 1 8 C0.34 8 -0.32 8 -1 8 C-1.93065133 5.39417629 -2.14917407 4.35801776 -1.0625 1.75 C-0.711875 1.1725 -0.36125 0.595 0 0 Z " fill="#E7E8EC" transform="translate(311,510)"/>
<path d="M0 0 C0.33 0 0.66 0 1 0 C1.25 3.25 1.25 3.25 1 7 C-0.32 8.32 -1.64 9.64 -3 11 C-2.01 7.37 -1.02 3.74 0 0 Z " fill="#BAC2CA" transform="translate(199,490)"/>
<path d="M0 0 C0.33 0.66 0.66 1.32 1 2 C1.66 2.33 2.32 2.66 3 3 C3 4.98 3 6.96 3 9 C2.01 8.67 1.02 8.34 0 8 C0 5.36 0 2.72 0 0 Z " fill="#223242" transform="translate(209,488)"/>
<path d="M0 0 C1.0326802 2.78823655 1.04509293 3.8677274 0.0625 6.75 C-0.288125 7.4925 -0.63875 8.235 -1 9 C-1.99 9 -2.98 9 -4 9 C-3.625 6.5625 -3.625 6.5625 -3 4 C-2.34 3.67 -1.68 3.34 -1 3 C-0.67 2.01 -0.34 1.02 0 0 Z " fill="#2F3E4F" transform="translate(201,476)"/>
<path d="M0 0 C0.66 0 1.32 0 2 0 C2.33 0.99 2.66 1.98 3 3 C1.625 4.5 1.625 4.5 0 6 C-0.66 6 -1.32 6 -2 6 C-2 4.68 -2 3.36 -2 2 C-1.34 2 -0.68 2 0 2 C0 1.34 0 0.68 0 0 Z " fill="#38ACE0" transform="translate(354,408)"/>
<path d="M0 0 C2.50298434 2.93828597 3.46930939 5.17902761 4 9 C3.01 8.67 2.02 8.34 1 8 C-0.35439668 5.29120665 -0.06501451 2.99066732 0 0 Z " fill="#3383C7" transform="translate(514,360)"/>
<path d="M0 0 C1.32 0 2.64 0 4 0 C2.25 3.875 2.25 3.875 0 5 C-0.66 4.67 -1.32 4.34 -2 4 C-2 3.34 -2 2.68 -2 2 C-1.34 2 -0.68 2 0 2 C0 1.34 0 0.68 0 0 Z " fill="#20B0ED" transform="translate(278,328)"/>
<path d="M0 0 C0 0.66 0 1.32 0 2 C-0.66 2 -1.32 2 -2 2 C-2 2.66 -2 3.32 -2 4 C-3.98 4 -5.96 4 -8 4 C-8 3.34 -8 2.68 -8 2 C-2.25 0 -2.25 0 0 0 Z " fill="#F4BD65" transform="translate(312,222)"/>
<path d="M0 0 C0.33 0 0.66 0 1 0 C1 2.31 1 4.62 1 7 C-0.32 7.33 -1.64 7.66 -3 8 C-1.125 2.25 -1.125 2.25 0 0 Z " fill="#C2D4E0" transform="translate(321,487)"/>
<path d="M0 0 C0.66 1.32 1.32 2.64 2 4 C1.01 5.485 1.01 5.485 0 7 C-1.32 6.34 -2.64 5.68 -4 5 C-2.68 3.35 -1.36 1.7 0 0 Z " fill="#273A48" transform="translate(177,473)"/>
<path d="M0 0 C1.4540625 0.0309375 1.4540625 0.0309375 2.9375 0.0625 C2.6075 1.0525 2.2775 2.0425 1.9375 3.0625 C1.2775 3.0625 0.6175 3.0625 -0.0625 3.0625 C-0.3925 3.7225 -0.7225 4.3825 -1.0625 5.0625 C-1.0625 4.0725 -1.0625 3.0825 -1.0625 2.0625 C-2.0525 1.7325 -3.0425 1.4025 -4.0625 1.0625 C-3.0625 0.0625 -3.0625 0.0625 0 0 Z " fill="#1A2232" transform="translate(235.0625,467.9375)"/>
<path d="M0 0 C0.33 1.32 0.66 2.64 1 4 C0.34 4 -0.32 4 -1 4 C-1 4.66 -1 5.32 -1 6 C-2.32 5.67 -3.64 5.34 -5 5 C-3.35 3.35 -1.7 1.7 0 0 Z " fill="#FEF3E6" transform="translate(455,372)"/>
</svg>
